HIERARCHY
ROOT Hips
{
    OFFSET 0.000000 0.000000 0.000000
    CHANNELS 6 Xposition Yposition Zposition Zrotation Xrotation Yrotation
    JOINT Spine
    {
        OFFSET -0.000000 8.312343 0.000000
        CHANNELS 3 Zrotation Xrotation Yrotation
        JOINT Spine1
        {
            OFFSET -0.000000 28.293047 0.000000
            CHANNELS 3 Zrotation Xrotation Yrotation
            JOINT Neck
            {
                OFFSET -0.000000 28.176853 2.561532
                CHANNELS 3 Zrotation Xrotation Yrotation
                JOINT Head
                {
                    OFFSET -0.000000 14.191803 -2.027400
                    CHANNELS 3 Zrotation Xrotation Yrotation
                    End Site
                    {
                        OFFSET -0.000000 25.342506 0.000000
                    }
                }
            }
            JOINT LeftShoulder
            {
                OFFSET 4.015815 26.370180 -0.268885
                CHANNELS 3 Zrotation Xrotation Yrotation
                JOINT LeftArm
                {
                    OFFSET 11.299099 0.000000 0.000000
                    CHANNELS 3 Zrotation Xrotation Yrotation
                    JOINT LeftForeArm
                    {
                        OFFSET 30.537071 0.000000 0.000000
                        CHANNELS 3 Zrotation Xrotation Yrotation
                        JOINT LeftHand
                        {
                            OFFSET 29.851767 0.000000 0.000000
                            CHANNELS 3 Zrotation Xrotation Yrotation
                            End Site
                            {
                                OFFSET 15.205504 0.000000 0.000000
                            }
                        }
                    }
                }
            }
            JOINT RightShoulder
            {
                OFFSET -4.091585 26.370180 -0.268885
                CHANNELS 3 Zrotation Xrotation Yrotation
                JOINT RightArm
                {
                    OFFSET -11.299099 0.000000 0.000000
                    CHANNELS 3 Zrotation Xrotation Yrotation
                    JOINT RightForeArm
                    {
                        OFFSET -30.537071 0.000000 0.000000
                        CHANNELS 3 Zrotation Xrotation Yrotation
                        JOINT RightHand
                        {
                            OFFSET -29.851767 0.000000 0.000000
                            CHANNELS 3 Zrotation Xrotation Yrotation
                            End Site
                            {
                                OFFSET -15.205504 0.000000 0.000000
                            }
                        }
                    }
                }
            }
        }
    }
    JOINT LeftUpLeg
    {
        OFFSET 10.137003 0.000000 0.000000
        CHANNELS 3 Zrotation Xrotation Yrotation
        JOINT LeftLeg
        {
            OFFSET -0.000000 -31.675148 0.000000
            CHANNELS 3 Zrotation Xrotation Yrotation
            JOINT LeftFoot
            {
                OFFSET -0.000000 -48.008553 0.000000
                CHANNELS 3 Zrotation Xrotation Yrotation
                JOINT LeftToeBase
                {
                    OFFSET -0.000000 -6.589051 15.205504
                    CHANNELS 3 Zrotation Xrotation Yrotation
                    End Site
                    {
                        OFFSET -0.000000 0.000000 4.054801
                    }
                }
            }
        }
    }
    JOINT RightUpLeg
    {
        OFFSET -10.137003 0.000000 0.000000
        CHANNELS 3 Zrotation Xrotation Yrotation
        JOINT RightLeg
        {
            OFFSET -0.000000 -31.675148 0.000000
            CHANNELS 3 Zrotation Xrotation Yrotation
            JOINT RightFoot
            {
                OFFSET -0.000000 -48.008553 0.000000
                CHANNELS 3 Zrotation Xrotation Yrotation
                JOINT RightToeBase
                {
                    OFFSET -0.000000 -6.589051 15.205504
                    CHANNELS 3 Zrotation Xrotation Yrotation
                    End Site
                    {
                        OFFSET -0.000000 0.000000 4.054801
                    }
                }
            }
        }
    }
}
MOTION
Frames:    8
Frame Time:    0.008333
100.026390    87.671814    -12.397292    -3.600260    -1.119288    83.650543    -1.218545    -15.179676    -4.955544    5.617093    6.594011    -5.117031    -0.777156    22.362818    -6.808791    5.771924    -7.980234    -5.918754    12.641124    -4.730320    -1.153287    6.908032    -17.916435    -0.996528    21.645075    -16.725119    -30.136246    21.733891    -12.606643    -8.549711    -10.961653    1.593864    0.517501    67.759666    64.020432    10.608570    1.126528    -12.594453    26.084604    -0.195418    -12.870832    12.877611    9.802545    2.107454    3.009626    -3.817383    -1.654501    10.282506    -7.377915    4.174208    21.885590    0.000000    0.000000    0.000000    -1.829977    3.931277    0.425998    2.531138    -3.129884    -3.894821    5.936783    0.086069    -9.590197    0.000000    0.000000    0.000000    
100.017311    87.676147    -12.431087    -3.539131    -1.132427    83.794754    -1.193156    -15.111218    -5.050265    5.592708    6.459939    -5.207882    -0.954896    22.576748    -6.719554    5.865869    -7.930567    -5.820980    12.852552    -4.921920    -1.396368    7.463405    -17.874046    -1.803241    18.058041    -15.417463    -25.573200    23.184849    -13.591739    -10.925199    -10.833476    1.557545    0.675122    67.764671    63.915909    10.457776    1.182104    -12.612309    26.027102    -0.261704    -12.907793    12.821893    9.792087    2.061721    2.905965    -3.807618    -1.568857    10.335691    -7.377831    4.175909    21.783642    0.000000    0.000000    0.000000    -1.878734    4.039282    0.327460    2.599799    -3.172026    -3.752254    5.931158    0.078439    -9.767082    0.000000    0.000000    0.000000    
99.979034    87.685928    -12.487145    -3.597140    -1.004179    83.695480    -1.255816    -15.171894    -5.017362    5.557032    6.378539    -5.160016    -1.028703    22.750923    -6.676107    5.882051    -7.920183    -5.779097    13.128076    -4.917367    -1.487556    7.709758    -16.622683    -2.546357    14.907259    -15.821383    -21.849031    26.005932    -15.403991    -10.623883    -10.669886    1.525657    0.706267    67.496666    64.000809    10.557096    1.219361    -12.668808    25.967415    -0.355868    -12.982071    12.758533    9.601271    1.956299    2.973927    -3.759232    -1.524449    10.378592    -7.496048    4.170173    21.853987    0.000000    0.000000    0.000000    -2.053610    3.787112    0.346234    2.623225    -2.949684    -3.607727    5.930471    -0.024337    -9.827973    0.000000    0.000000    0.000000    
99.990929    87.714653    -12.522441    -3.549259    -0.953940    83.669731    -1.303536    -15.182092    -5.042887    5.550854    6.376626    -5.178607    -1.282095    22.865654    -6.584612    6.068954    -7.848697    -5.665584    13.398831    -4.949034    -1.553176    7.974958    -13.405789    -2.184810    11.424609    -19.158583    -21.507465    31.369141    -18.210600    -4.187493    -10.665481    1.692303    0.649393    66.769127    64.199966    11.326491    1.207124    -12.738994    25.854805    -0.379717    -13.050650    12.719840    9.490936    1.999698    2.977128    -3.716381    -1.515030    10.440076    -7.461249    4.373354    21.805344    0.000000    0.000000    0.000000    -2.002997    3.689293    0.206293    2.420237    -2.752947    -3.907478    6.046191    0.037465    -9.403910    0.000000    0.000000    0.000000    
99.979958    87.736465    -12.555737    -3.528136    -0.938988    83.686325    -1.417434    -15.192273    -5.087310    5.714550    6.413424    -5.218732    -1.518288    22.992760    -6.557820    6.112153    -7.923596    -5.641694    13.540585    -4.879638    -1.541691    7.921157    -11.590709    -1.740154    8.455370    -22.997238    -23.694004    35.260220    -19.700310    5.544728    -10.594530    1.621909    0.537440    66.223625    64.534607    11.696101    1.108651    -12.783711    25.792677    -0.277611    -13.061668    12.755729    9.430634    1.960949    2.940601    -3.680926    -1.466504    10.542916    -7.467531    4.473345    21.756256    0.000000    0.000000    0.000000    -2.109713    3.613476    0.361867    2.524402    -2.601001    -3.765355    6.038061    -0.016233    -9.704165    0.000000    0.000000    0.000000    
99.957130    87.760612    -12.588817    -3.518978    -0.944596    83.663895    -1.397378    -15.051382    -5.201607    5.776828    6.185391    -5.329397    -2.201858    23.155933    -6.360062    6.546004    -7.899908    -5.393930    13.486028    -4.742778    -1.200148    7.841429    -7.610739    -0.684036    6.166859    -28.435949    -27.637857    38.924362    -22.301672    14.834589    -10.669724    1.622004    0.738218    66.047791    64.662010    11.899026    0.657618    -12.440455    25.482035    0.885918    -12.486179    13.155130    9.415372    1.900147    2.916247    -3.688276    -1.370540    10.468838    -7.450831    4.495950    21.894278    0.000000    0.000000    0.000000    -2.107649    3.480628    0.358030    2.478574    -2.413018    -3.723713    6.098664    0.016687    -9.697591    0.000000    0.000000    0.000000    
99.925026    87.773109    -12.625016    -3.486918    -0.948661    83.580193    -1.614805    -15.044888    -5.179415    6.222219    6.378725    -5.313240    -2.674127    23.031656    -6.403518    6.727804    -7.941755    -5.426924    13.225307    -4.776217    -1.010771    7.480029    -6.450827    0.006872    4.495200    -32.582260    -31.469147    39.756172    -25.779299    17.900454    -10.915500    1.400904    0.558026    65.993126    64.856712    11.951124    0.680952    -12.488318    25.562174    0.281216    -12.608908    12.669877    9.379996    1.869217    2.988264    -3.674685    -1.265701    10.393622    -7.447358    4.454250    21.997013    0.000000    0.000000    0.000000    -2.131515    3.332940    0.422814    2.479914    -2.189156    -3.722185    6.123023    -0.007208    -9.695106    0.000000    0.000000    0.000000    
99.879898    87.800583    -12.652787    -3.527960    -0.989552    83.496460    -1.633861    -15.086750    -5.231591    6.397929    6.509978    -5.379462    -3.385801    22.889954    -6.217546    7.205101    -7.852773    -5.180155    13.016709    -4.809397    -0.581763    6.935225    -7.019903    0.265946    4.333239    -34.100292    -33.935535    36.046844    -29.254333    13.377646    -11.279212    1.298326    0.657053    66.072052    64.867805    12.135594    0.562266    -12.481633    25.537125    0.267295    -12.577550    12.565821    9.408675    1.764088    3.018012    -3.676207    -1.176617    10.411415    -7.425056    4.495659    22.048254    0.000000    0.000000    0.000000    -2.071681    3.103849    0.456827    2.432910    -1.960633    -3.702930    6.154831    0.050643    -9.702578    0.000000    0.000000    0.000000    
